<svg xmlns="http://www.w3.org/2000/svg" viewBox="0 0 64 64" role="img" aria-labelledby="title desc">
  <title id="title">BloomyCocoon yarn favicon</title>
  <desc id="desc">A polished yarn ball mark using BloomyCocoon brand colors.</desc>
  <circle cx="32" cy="34" r="24" fill="#D9B8B0"/>
  <path fill="#DCCFC0" d="M13 34c4-12 15-21 29-22 7 4 12 12 13 21-16-5-32-5-42 1Z"/>
  <path fill="#A8B5A2" d="M18 49c10-8 24-11 38-8-3 10-12 17-24 17-6 0-11-2-14-9Z"/>
  <path fill="none" stroke="#F7F3EE" stroke-linecap="round" stroke-width="6" d="M14 34c10-8 23-12 38-10M17 45c12-7 26-8 41-3M27 56c-6-13-7-28-2-44"/>
  <path fill="none" stroke="#7B5E57" stroke-linecap="round" stroke-width="4" d="M15 31c13 2 27 10 42 24M38 11c8 10 12 22 12 37"/>
  <circle cx="32" cy="34" r="24" fill="none" stroke="#7B5E57" stroke-width="4"/>
</svg>
